<svg width="41" height="30" viewBox="0 0 41 30" fill="none" xmlns="http://www.w3.org/2000/svg"><path fill-rule="evenodd" clip-rule="evenodd" d="M16.4 21.429V8.57L27.051 15l-10.65 6.428zM40.144 4.685c-.472-1.844-1.861-3.296-3.626-3.789C33.321 0 20.5 0 20.5 0S7.68 0 4.482.896C2.717 1.39 1.329 2.841.857 4.685 0 8.026 0 15 0 15s0 6.973.857 10.315c.472 1.844 1.86 3.296 3.625 3.789C7.68 30 20.5 30 20.5 30s12.822 0 16.018-.895c1.765-.493 3.154-1.945 3.626-3.789C41 21.974 41 15.001 41 15.001s0-6.975-.856-10.316z" fill="#FFDF37"/></svg>